<svg width="54" height="54" viewBox="0 0 54 54" fill="none" xmlns="http://www.w3.org/2000/svg">
<path d="M50.625 8.4375H3.375C1.512 8.4375 0 9.9495 0 11.8125V13.7329L27 25.1674L54 13.7295V11.8125C54 9.9495 52.488 8.4375 50.625 8.4375Z" fill="url(#paint0_linear_1_557)"/>
<path d="M27.6581 28.5525C27.4489 28.6436 27.2227 28.6875 27 28.6875C26.7773 28.6875 26.5511 28.6436 26.3419 28.5525L0 17.3981V42.1875C0 44.0505 1.512 45.5625 3.375 45.5625H50.625C52.488 45.5625 54 44.0505 54 42.1875V17.3981L27.6581 28.5525Z" fill="url(#paint1_linear_1_557)"/>
<defs>
<linearGradient id="paint0_linear_1_557" x1="27" y1="8.4375" x2="27" y2="25.1674" gradientUnits="userSpaceOnUse">
<stop stop-color="#F47A20"/>
<stop offset="1" stop-color="#0E5C66"/>
</linearGradient>
<linearGradient id="paint1_linear_1_557" x1="27" y1="17.3981" x2="27" y2="45.5625" gradientUnits="userSpaceOnUse">
<stop stop-color="#F47A20"/>
<stop offset="1" stop-color="#0E5C66"/>
</linearGradient>
</defs>
</svg>
