<svg width="32" height="32" viewBox="0 0 32 32" fill="none" xmlns="http://www.w3.org/2000/svg">
<g clip-path="url(#clip0_88_436)">
<path d="M1.46484e-05 24.25C1.46484e-05 18.75 1.46484e-05 13.25 1.46484e-05 7.75C0.0200146 7.65063 0.0487646 7.55188 0.0593896 7.45062C0.393765 4.21812 2.82189 1.29188 5.95501 0.381875C6.54064 0.21125 7.15126 0.125 7.75001 0C13.25 0 18.75 0 24.25 0C24.33 0.01875 24.4094 0.043125 24.4906 0.055C27.9744 0.5525 30.3294 2.4625 31.5456 5.75125C31.7806 6.38625 31.8525 7.08187 32 7.75V24.25C31.9813 24.33 31.9563 24.4094 31.9444 24.4906C31.4331 28.0088 29.5025 30.3794 26.16 31.5744C25.5506 31.7925 24.8881 31.8619 24.25 32.0006H7.75001C7.68001 31.9831 7.61126 31.9581 7.54064 31.9481C4.00626 31.4469 1.62626 29.5131 0.42439 26.1594C0.206265 25.5506 0.137515 24.8881 -0.000610352 24.2506L1.46484e-05 24.25ZM26.375 16.0219C26.375 14.4494 26.3788 12.8763 26.3744 11.3038C26.365 8.11938 23.8888 5.63375 20.7094 5.62687C17.5744 5.62 14.4394 5.62063 11.3044 5.62687C8.10751 5.63312 5.63064 8.11875 5.62626 11.3225C5.62189 14.4469 5.62251 17.5719 5.62939 20.6963C5.63001 21.0488 5.65314 21.4069 5.72001 21.7519C6.25064 24.4963 8.52376 26.3706 11.3225 26.3744C14.4369 26.3794 17.5506 26.3794 20.665 26.3744C23.9025 26.3694 26.37 23.8919 26.375 20.6462C26.3775 19.105 26.375 17.5631 26.375 16.0219Z" fill="url(#paint0_linear_88_436)"/>
<path d="M7.49998 15.9688C7.49998 14.4275 7.49811 12.8869 7.49998 11.3457C7.50311 9.14067 9.14373 7.50255 11.3531 7.50067C14.4562 7.4988 17.5587 7.49817 20.6619 7.50067C22.8519 7.50255 24.4969 9.14317 24.4987 11.3294C24.5019 14.4425 24.5019 17.5563 24.4987 20.6694C24.4962 22.855 22.8519 24.4969 20.6619 24.4994C17.5487 24.5025 14.435 24.5032 11.3219 24.4994C9.15373 24.4969 7.50436 22.8482 7.49998 20.6857C7.49686 19.1132 7.49936 17.5413 7.49936 15.9688H7.49998ZM11.3125 15.9907C11.3094 18.5738 13.4119 20.685 15.9906 20.6875C18.5744 20.69 20.6837 18.5894 20.6869 16.0088C20.6906 13.425 18.5894 11.3157 16.0087 11.3125C13.4244 11.3094 11.3156 13.4094 11.3125 15.99V15.9907ZM21.3894 11.5613C21.8956 11.5532 22.315 11.1238 22.3112 10.6175C22.3075 10.1113 21.8819 9.6888 21.3756 9.68817C20.8575 9.68817 20.4256 10.1288 20.4387 10.6469C20.4512 11.1538 20.8837 11.5694 21.3894 11.5613Z" fill="url(#paint1_linear_88_436)"/>
<path d="M16.0169 13.1887C17.5706 13.1962 18.8256 14.4731 18.8113 16.0325C18.7975 17.5712 17.5275 18.8193 15.9838 18.8118C14.4313 18.8043 13.175 17.5262 13.1888 15.9681C13.2019 14.4306 14.4725 13.1818 16.0169 13.1893V13.1887Z" fill="url(#paint2_linear_88_436)"/>
</g>
<defs>
<linearGradient id="paint0_linear_88_436" x1="-0.000610352" y1="16.0003" x2="32" y2="16.0003" gradientUnits="userSpaceOnUse">
<stop stop-color="#F47A20"/>
<stop offset="1" stop-color="#0E5C66"/>
</linearGradient>
<linearGradient id="paint1_linear_88_436" x1="7.49841" y1="16.0005" x2="24.5011" y2="16.0005" gradientUnits="userSpaceOnUse">
<stop stop-color="#F47A20"/>
<stop offset="1" stop-color="#0E5C66"/>
</linearGradient>
<linearGradient id="paint2_linear_88_436" x1="13.1887" y1="16.0003" x2="18.8114" y2="16.0003" gradientUnits="userSpaceOnUse">
<stop stop-color="#F47A20"/>
<stop offset="1" stop-color="#0E5C66"/>
</linearGradient>
<clipPath id="clip0_88_436">
<rect width="32" height="32" fill="white"/>
</clipPath>
</defs>
</svg>
