<svg width="50" height="56" viewBox="0 0 50 56" fill="none" xmlns="http://www.w3.org/2000/svg">
<path d="M24.5351 55.0969H20.2307C18.0945 55.0969 16.3567 53.3591 16.3567 51.2229V24.5354C16.3567 22.3992 18.0945 20.6614 20.2307 20.6614H24.5351C26.6713 20.6614 28.4091 22.3992 28.4091 24.5354V51.2229C28.4091 53.3591 26.6712 55.0969 24.5351 55.0969Z" fill="url(#paint0_linear_1_442)"/>
<path d="M8.17843 55.0969H3.874C1.73781 55.0969 0 53.3591 0 51.2229V33.1443C0 31.0081 1.73781 29.2703 3.874 29.2703H8.17843C10.3146 29.2703 12.0524 31.0081 12.0524 33.1443V51.2229C12.0524 53.3591 10.3145 55.0969 8.17843 55.0969Z" fill="url(#paint1_linear_1_442)"/>
<path d="M40.8906 55.0968H36.5862C34.45 55.0968 32.7122 53.359 32.7122 51.2228V15.496H30.3469C29.2411 15.496 28.267 14.8718 27.8049 13.8672C27.3428 12.8625 27.5028 11.7169 28.2225 10.8772C28.2307 10.8676 28.2391 10.8581 28.2475 10.8487L37.4561 0.572706C37.7827 0.208227 38.249 0 38.7384 0C39.2278 0 39.694 0.208227 40.0207 0.572706L49.2293 10.8487C49.2378 10.8581 49.2461 10.8676 49.2542 10.8772C49.9739 11.7168 50.134 12.8625 49.6719 13.8672C49.2098 14.8718 48.2357 15.496 47.1299 15.496H44.7646V51.2228C44.7646 53.359 43.0267 55.0968 40.8906 55.0968Z" fill="url(#paint2_linear_1_442)"/>
<defs>
<linearGradient id="paint0_linear_1_442" x1="22.3829" y1="20.6614" x2="22.3829" y2="55.0969" gradientUnits="userSpaceOnUse">
<stop stop-color="#5CE0E5"/>
<stop offset="1" stop-color="#2B4FEE"/>
</linearGradient>
<linearGradient id="paint1_linear_1_442" x1="6.02622" y1="29.2703" x2="6.02622" y2="55.0969" gradientUnits="userSpaceOnUse">
<stop stop-color="#5CE0E5"/>
<stop offset="1" stop-color="#2B4FEE"/>
</linearGradient>
<linearGradient id="paint2_linear_1_442" x1="38.7384" y1="0" x2="38.7384" y2="55.0968" gradientUnits="userSpaceOnUse">
<stop stop-color="#5CE0E5"/>
<stop offset="1" stop-color="#2B4FEE"/>
</linearGradient>
</defs>
</svg>
