<svg width="32" height="33" viewBox="0 0 32 33" fill="none" xmlns="http://www.w3.org/2000/svg">
<g clip-path="url(#clip0_88_434)">
<path d="M32 4.19538V27.8236C31.9789 27.9019 31.9522 27.9801 31.9382 28.06C31.6509 29.6489 30.7938 30.826 29.3435 31.5273C28.8668 31.7582 28.3252 31.8537 27.8133 32.0118H19.7515V20.6947H24.5009C24.8132 18.8194 25.1232 16.9589 25.4402 15.0593H19.7671V11.253H25.4151V5.63242C23.5492 5.63242 21.7059 5.62851 19.8634 5.63321C16.5995 5.6426 14.1379 8.10576 14.1278 11.3712C14.1239 12.4858 14.1278 13.6003 14.1278 14.7149C14.1278 14.826 14.1278 14.9364 14.1278 15.0812H10.3935V20.7002H14.1278V32.0111H4.18901C4.14049 31.9931 4.09352 31.9672 4.04343 31.9594C1.63427 31.5547 0.00625168 29.677 0.00468628 27.2601C-0.00235804 19.7602 -0.00314075 12.2603 0.0125133 4.76128C0.013296 4.23921 0.0993932 3.69523 0.263761 3.20057C0.924361 1.21955 2.6784 0.00870626 4.81909 0.00792355C11.89 0.00557545 18.961 0.00714085 26.0327 0.00792355C26.5117 0.00792355 26.9923 -0.0124267 27.4697 0.0165333C29.3036 0.126112 30.6725 0.991781 31.4998 2.63389C31.7425 3.11603 31.838 3.67332 32.0008 4.19616L32 4.19538Z" fill="url(#paint0_linear_88_434)"/>
</g>
<defs>
<linearGradient id="paint0_linear_88_434" x1="-0.00012207" y1="16.0064" x2="32.0008" y2="16.0064" gradientUnits="userSpaceOnUse">
<stop stop-color="#5CE0E5"/>
<stop offset="1" stop-color="#2B4FEE"/>
</linearGradient>
<clipPath id="clip0_88_434">
<rect width="32" height="32.0117" fill="white"/>
</clipPath>
</defs>
</svg>
