<svg width="32" height="32" viewBox="0 0 32 32" fill="none" xmlns="http://www.w3.org/2000/svg">
<g clip-path="url(#clip0_88_440)">
<path d="M32 3.87446V28.1205C31.9799 28.1898 31.9541 28.2574 31.9415 28.3276C31.5742 30.4631 29.8002 31.99 27.643 31.9917C19.8757 31.9975 12.1092 31.9992 4.34195 31.9908C1.94431 31.9883 0.0100025 30.0515 0.00749801 27.6564C-1.54907e-05 19.8799 -0.00752899 12.1026 0.0141767 4.32527C0.0191857 2.58548 0.861533 1.2823 2.40764 0.482534C2.86012 0.24878 3.38607 0.156949 3.87862 0C11.9606 0 20.0427 0 28.1247 0C28.184 0.0183663 28.2416 0.0425765 28.3017 0.0542642C30.1183 0.393207 31.2929 1.45261 31.8414 3.2116C31.909 3.42783 31.9474 3.65323 31.9992 3.87446H32ZM17.0464 14.1579C17.0464 13.8774 17.0498 13.6128 17.0464 13.3473C17.0381 12.8247 16.8219 12.6052 16.3026 12.6035C15.3868 12.6001 14.4702 12.6001 13.5543 12.6035C13.0326 12.6052 12.8163 12.8239 12.8163 13.3473C12.8155 17.3136 12.8155 21.2807 12.8163 25.247C12.8163 25.7646 13.0434 25.9934 13.556 25.995C14.4201 25.9975 15.2841 25.9959 16.1482 25.995C16.8528 25.995 17.0331 25.8147 17.0331 25.1085C17.0331 23.1099 17.0306 21.1104 17.0348 19.1118C17.0364 18.3597 17.1967 17.6434 17.6041 17.0014C18.115 16.1958 18.8756 15.9378 19.7872 16.0597C20.622 16.1707 21.1739 16.6641 21.3642 17.4572C21.5195 18.1067 21.5896 18.7896 21.5996 19.4591C21.628 21.3851 21.6055 23.3111 21.6071 25.237C21.6071 25.7763 21.8275 25.9892 22.371 25.99C23.3077 25.9917 24.2452 25.9925 25.1819 25.99C25.7129 25.9884 25.9366 25.7605 25.9366 25.2212C25.9358 23.0247 25.9608 20.8274 25.9157 18.6318C25.8974 17.7218 25.8005 16.7994 25.6052 15.9119C25.247 14.2832 24.3496 13.0593 22.6524 12.6118C22.1448 12.4783 21.6071 12.4106 21.082 12.4015C19.5159 12.3739 18.1067 12.7521 17.1391 14.1195C17.1299 14.1321 17.1066 14.1337 17.0473 14.1579H17.0464ZM6.68867 19.298C6.68867 21.2448 6.68867 23.1917 6.68867 25.1377C6.68867 25.7713 6.91741 25.995 7.5594 25.9959C8.39257 25.9959 9.22489 25.9967 10.0581 25.9959C10.6717 25.9959 10.9129 25.7613 10.9129 25.1494C10.9146 21.2457 10.9146 17.342 10.9129 13.4383C10.9129 12.8255 10.6775 12.5985 10.0539 12.5968C9.22072 12.5943 8.38839 12.5943 7.55523 12.5968C6.91157 12.5985 6.68867 12.8222 6.68867 13.4584C6.68867 15.4052 6.68867 17.352 6.68867 19.298ZM11.519 8.74071C11.534 7.25387 10.3344 6.01998 8.85339 5.99911C7.33316 5.97824 6.08592 7.18625 6.07006 8.69312C6.05503 10.1958 7.26304 11.4322 8.75822 11.4447C10.291 11.4581 11.5032 10.2701 11.5182 8.73987L11.519 8.74071Z" fill="#0E5C66"/>
</g>
<defs>
<clipPath id="clip0_88_440">
<rect width="32" height="31.9975" fill="white"/>
</clipPath>
</defs>
</svg>
