<svg width="54" height="54" viewBox="0 0 54 54" fill="none" xmlns="http://www.w3.org/2000/svg">
<g clip-path="url(#clip0_1_542)">
<path d="M42.9866 9.24718C39.7094 3.59152 33.8883 0.136257 27.4152 0.00421045C27.1389 -0.00148486 26.8607 -0.00148486 26.5843 0.00421045C20.1113 0.136257 14.2902 3.59152 11.0129 9.24718C7.66301 15.0281 7.57136 21.9722 10.7677 27.8226L24.1583 52.3322C24.1643 52.3431 24.1703 52.3539 24.1766 52.3647C24.7657 53.3887 25.8211 54 27 54C28.1787 54 29.2341 53.3886 29.8232 52.3647C29.8294 52.3539 29.8354 52.3431 29.8414 52.3322L43.232 27.8226C46.4282 21.9722 46.3365 15.0281 42.9866 9.24718ZM26.9998 24.4687C22.8125 24.4687 19.406 21.0622 19.406 16.875C19.406 12.6878 22.8125 9.28124 26.9998 9.28124C31.187 9.28124 34.5935 12.6878 34.5935 16.875C34.5935 21.0622 31.1871 24.4687 26.9998 24.4687Z" fill="url(#paint0_linear_1_542)"/>
</g>
<defs>
<linearGradient id="paint0_linear_1_542" x1="26.9998" y1="-6.10352e-05" x2="26.9998" y2="54" gradientUnits="userSpaceOnUse">
<stop stop-color="#F47A20"/>
<stop offset="1" stop-color="#0E5C66"/>
</linearGradient>
<clipPath id="clip0_1_542">
<rect width="54" height="54" fill="white"/>
</clipPath>
</defs>
</svg>
