<svg width="49" height="49" viewBox="0 0 49 49" fill="none" xmlns="http://www.w3.org/2000/svg">
<g clip-path="url(#clip0_1_549)">
<path d="M47.6664 35.9611L40.8283 29.123C38.3862 26.6808 34.2344 27.6578 33.2576 30.8325C32.5249 33.0305 30.0827 34.2516 27.8848 33.7631C23.0004 32.542 16.4065 26.1924 15.1855 21.0638C14.4528 18.8657 15.9181 16.4235 18.1161 15.691C21.2909 14.7141 22.2678 10.5624 19.8256 8.12024L12.9875 1.28214C11.0338 -0.427381 8.10315 -0.427381 6.39362 1.28214L1.75348 5.92228C-2.88665 10.8066 2.24192 23.7502 13.7202 35.2284C25.1984 46.7066 38.1419 52.0795 43.0263 47.1951L47.6664 42.5549C49.376 40.6012 49.376 37.6706 47.6664 35.9611Z" fill="url(#paint0_linear_1_549)"/>
</g>
<defs>
<linearGradient id="paint0_linear_1_549" x1="24.5001" y1="0" x2="24.5001" y2="49.0001" gradientUnits="userSpaceOnUse">
<stop stop-color="#F47A20"/>
<stop offset="1" stop-color="#0E5C66"/>
</linearGradient>
<clipPath id="clip0_1_549">
<rect width="49" height="49" fill="white"/>
</clipPath>
</defs>
</svg>
