<svg width="400" height="400" viewBox="0 0 400 400" fill="none" xmlns="http://www.w3.org/2000/svg">
  <!-- Background -->
  <rect width="400" height="400" fill="#FFFFFF"/>
  
  <!-- Subtle background -->
  <circle cx="200" cy="200" r="160" fill="#F8F8F7"/>
  
  <!-- Flowchart Boxes -->
  <!-- Step 1 -->
  <rect x="125" y="80" width="150" height="60" rx="8" fill="white" stroke="#0E5C66" stroke-width="2"/>
  <rect x="135" y="95" width="130" height="12" rx="6" fill="#F47A20" opacity="0.2"/>
  <rect x="135" y="112" width="100" height="8" rx="4" fill="#0E5C66" opacity="0.15"/>
  
  <!-- Arrow Down -->
  <line x1="200" y1="140" x2="200" y2="170" stroke="#5E6E73" stroke-width="2"/>
  <path d="M200 170 L195 162 L205 162 Z" fill="#5E6E73"/>
  
  <!-- Step 2 -->
  <rect x="125" y="170" width="150" height="60" rx="8" fill="white" stroke="#0E5C66" stroke-width="2"/>
  <rect x="135" y="185" width="130" height="12" rx="6" fill="#0E5C66" opacity="0.2"/>
  <rect x="135" y="202" width="110" height="8" rx="4" fill="#F47A20" opacity="0.15"/>
  
  <!-- Arrow Down -->
  <line x1="200" y1="230" x2="200" y2="260" stroke="#5E6E73" stroke-width="2"/>
  <path d="M200 260 L195 252 L205 252 Z" fill="#5E6E73"/>
  
  <!-- Step 3 -->
  <rect x="125" y="260" width="150" height="60" rx="8" fill="white" stroke="#0E5C66" stroke-width="2"/>
  <rect x="135" y="275" width="130" height="12" rx="6" fill="#F47A20" opacity="0.2"/>
  <rect x="135" y="292" width="95" height="8" rx="4" fill="#0E5C66" opacity="0.15"/>
  
  <!-- Success Circle -->
  <circle cx="200" cy="350" r="20" fill="#04343C" opacity="0.08"/>
  <path d="M192 350 L198 356 L208 344" stroke="#04343C" stroke-width="2.5" stroke-linecap="round" stroke-linejoin="round"/>
</svg>


