<svg width="400" height="400" viewBox="0 0 400 400" fill="none" xmlns="http://www.w3.org/2000/svg">
  <!-- Background -->
  <rect width="400" height="400" fill="#FFFFFF"/>
  
  <!-- Subtle background -->
  <circle cx="200" cy="200" r="160" fill="#F8F8F7"/>
  
  <!-- Three Service Boxes Representing Different Services -->
  <!-- Box 1 - Tax Preparation -->
  <rect x="60" y="100" width="100" height="120" rx="12" fill="white" stroke="#E5E5E5" stroke-width="2"/>
  <rect x="60" y="100" width="100" height="35" rx="12" fill="#F47A20" opacity="0.15"/>
  <rect x="75" y="150" width="70" height="8" rx="4" fill="#0E5C66" opacity="0.2"/>
  <rect x="75" y="165" width="55" height="8" rx="4" fill="#0E5C66" opacity="0.15"/>
  <rect x="75" y="180" width="65" height="8" rx="4" fill="#0E5C66" opacity="0.15"/>
  
  <!-- Box 2 - Tax Planning -->
  <rect x="150" y="160" width="100" height="120" rx="12" fill="white" stroke="#E5E5E5" stroke-width="2"/>
  <rect x="150" y="160" width="100" height="35" rx="12" fill="#0E5C66" opacity="0.15"/>
  <rect x="165" y="210" width="70" height="8" rx="4" fill="#F47A20" opacity="0.2"/>
  <rect x="165" y="225" width="55" height="8" rx="4" fill="#F47A20" opacity="0.15"/>
  <rect x="165" y="240" width="65" height="8" rx="4" fill="#F47A20" opacity="0.15"/>
  
  <!-- Box 3 - Tax Resolution -->
  <rect x="240" y="100" width="100" height="120" rx="12" fill="white" stroke="#E5E5E5" stroke-width="2"/>
  <rect x="240" y="100" width="100" height="35" rx="12" fill="#F47A20" opacity="0.15"/>
  <rect x="255" y="150" width="70" height="8" rx="4" fill="#0E5C66" opacity="0.2"/>
  <rect x="255" y="165" width="55" height="8" rx="4" fill="#0E5C66" opacity="0.15"/>
  <rect x="255" y="180" width="65" height="8" rx="4" fill="#0E5C66" opacity="0.15"/>
  
  <!-- Connecting Lines -->
  <line x1="160" y1="160" x2="150" y2="160" stroke="#5E6E73" stroke-width="2" opacity="0.3"/>
  <line x1="250" y1="160" x2="240" y2="160" stroke="#5E6E73" stroke-width="2" opacity="0.3"/>
  
  <!-- Professional Icon at bottom -->
  <circle cx="200" cy="310" r="35" fill="#04343C" opacity="0.05"/>
  <path d="M190 310 L197 317 L210 300" stroke="#04343C" stroke-width="3" stroke-linecap="round" stroke-linejoin="round"/>
</svg>


